<svg width="36" height="36" viewBox="0 0 36 36" fill="none" xmlns="http://www.w3.org/2000/svg">
<circle cx="18" cy="18" r="18" fill="black"/>
<path d="M19.7497 13.9124H16.25V27H19.7497V13.9124Z" fill="white"/>
<path d="M17.9982 12.9612C17.934 12.9612 17.8698 12.9572 17.8056 12.9532C17.7414 12.9452 17.6772 12.9371 17.6129 12.9251C17.5487 12.913 17.4845 12.897 17.4243 12.8769C17.3641 12.8569 17.2999 12.8368 17.2397 12.8127C17.1795 12.7886 17.1193 12.7605 17.0631 12.7284C17.0069 12.6963 16.9507 12.6642 16.8946 12.6281C16.8424 12.592 16.7902 12.5518 16.738 12.5117C16.6899 12.4716 16.6417 12.4274 16.5936 12.3793C16.5494 12.3351 16.5053 12.287 16.4611 12.2348C16.421 12.1826 16.3808 12.1344 16.3447 12.0783C16.3086 12.0261 16.2765 11.9699 16.2444 11.9097C16.2123 11.8535 16.1842 11.7933 16.1601 11.7331C16.136 11.6729 16.1119 11.6127 16.0959 11.5485C16.0758 11.4883 16.0598 11.4241 16.0477 11.3599C16.0357 11.2957 16.0237 11.2314 16.0196 11.1672C16.0196 11.111 16.0156 11.0468 16.0156 10.9826C16.0156 10.9184 16.0196 10.8542 16.0237 10.79C16.0317 10.7258 16.0397 10.6615 16.0517 10.5973C16.0638 10.5331 16.0798 10.4689 16.0999 10.4087C16.12 10.3485 16.14 10.2843 16.1641 10.2241C16.1882 10.1639 16.2163 10.1037 16.2484 10.0475C16.2805 9.9913 16.3126 9.93512 16.3487 9.87893C16.3849 9.82676 16.425 9.77458 16.4651 9.72241C16.5053 9.67023 16.5494 9.62609 16.5976 9.57793C16.6417 9.53378 16.6899 9.48963 16.742 9.44549C16.7942 9.40535 16.8424 9.36522 16.8986 9.3291C16.9507 9.29298 17.0069 9.26087 17.0671 9.22876C17.1273 9.19666 17.1835 9.16856 17.2437 9.14448C17.3039 9.1204 17.3641 9.09632 17.4283 9.08027C17.4885 9.0602 17.5527 9.04415 17.617 9.03211C17.6812 9.02007 17.7454 9.00803 17.8096 9.00401C17.8658 9.00401 17.934 9 17.9982 9C18.0624 9 18.1267 9.00401 18.1909 9.00803C18.2551 9.01605 18.3193 9.02408 18.3835 9.03612C18.4477 9.04816 18.5119 9.06421 18.5721 9.08428C18.6323 9.10435 18.6966 9.12441 18.7568 9.1485C18.817 9.17258 18.8772 9.20067 18.9334 9.23278C18.9895 9.26488 19.0457 9.29699 19.1019 9.33311C19.1581 9.36923 19.2063 9.40936 19.2584 9.4495C19.3066 9.48963 19.3548 9.53378 19.4029 9.58194C19.4471 9.62609 19.4912 9.67425 19.5354 9.72642C19.5755 9.7786 19.6156 9.82676 19.6517 9.88294C19.6879 9.93512 19.72 9.9913 19.7521 10.0515C19.7842 10.1077 19.8123 10.1679 19.8364 10.2281C19.8604 10.2883 19.8845 10.3485 19.9006 10.4127C19.9206 10.4729 19.9367 10.5371 19.9487 10.6013C19.9608 10.6656 19.9728 10.7298 19.9768 10.794C19.9849 10.8582 19.9849 10.9224 19.9849 10.9866C19.9849 11.0508 19.9808 11.1151 19.9768 11.1793C19.9728 11.2435 19.9608 11.3077 19.9487 11.3719C19.9367 11.4361 19.9206 11.5003 19.9006 11.5605C19.8805 11.6207 19.8604 11.685 19.8364 11.7452C19.8123 11.8054 19.7842 11.8656 19.7521 11.9217C19.72 11.9779 19.6879 12.0341 19.6517 12.0903C19.6156 12.1425 19.5755 12.1946 19.5354 12.2468C19.4952 12.299 19.4511 12.3431 19.4029 12.3913C19.3588 12.4355 19.3106 12.4796 19.2584 12.5237C19.2063 12.5639 19.1581 12.604 19.1019 12.6401C19.0497 12.6763 18.9936 12.7084 18.9334 12.7405C18.8772 12.7726 18.817 12.8007 18.7568 12.8247C18.6966 12.8488 18.6364 12.8729 18.5721 12.889C18.5119 12.909 18.4477 12.9251 18.3835 12.9371C18.3193 12.9492 18.2551 12.9612 18.1909 12.9652C18.1267 12.9612 18.0624 12.9612 17.9982 12.9612Z" fill="white"/>
</svg>
