<svg width="221" height="34" viewBox="0 0 221 34" fill="none"
    xmlns="http://www.w3.org/2000/svg">
    <path d="M119.968 32.7557L108.537 32.7943L97.2671 18.9886L97.5629 32.7797H88.6953V10.8792L97.2351 10.8232L97.1511 14.1624L108.509 1.93164L119.101 1.96362L104.969 16.0079L119.968 32.7557Z" fill="#8B32FE"/>
    <path d="M86.854 10.8872H78.9578V32.8423H86.854V10.8872Z" fill="#8B32FE"/>
    <path d="M83.5928 4.20361C83.5928 1.89444 85.325 0.112926 87.9446 0.114259C90.5642 0.115591 92.2938 1.77851 92.2924 4.08369C92.2924 6.51412 90.5602 8.29563 87.9406 8.2943C85.321 8.29296 83.5914 6.51278 83.5928 4.20361Z" fill="#8B32FE"/>
    <path d="M77.4987 20.283V32.8416H69.6038V21.5396C69.6038 18.3803 68.1927 17.0425 65.9089 17.0411C63.3772 17.0411 61.4198 18.5788 61.4185 22.2244L61.4118 32.8376H53.5156L53.5276 10.8811L61.0534 10.8798V13.2702C62.8402 11.4488 65.3759 10.5187 68.2021 10.52C73.4733 10.5187 77.5027 13.4781 77.4987 20.283Z" fill="#8B32FE"/>
    <path d="M8.26094 10.8447H0.364746V32.7998H8.26094V10.8447Z" fill="#8B32FE"/>
    <path d="M20.4943 11.4614C23.4857 11.4614 26.8901 12.3942 29.0114 14.626L25.9747 19.323C24.7289 18.1478 22.8181 17.295 20.9473 17.295C17.5415 17.295 15.836 19.8027 15.8347 22.2744C15.8333 24.7462 17.5775 27.4604 21.1925 27.4617C23.2685 27.4617 25.515 26.2492 27.0554 24.954L29.671 29.8575C27.5497 31.9628 24.0586 33.2966 20.485 33.2953C12.8393 33.2953 8.56339 28.0987 8.56739 22.3517C8.56206 16.7607 12.806 11.4574 20.4943 11.4614Z" fill="#8B32FE"/>
    <path d="M27.9255 21.7949C27.9255 15.1925 33.2927 10.4955 40.6493 10.4995C48.0857 10.4995 53.3596 15.2058 53.3557 21.8095C53.3557 28.4519 48.0724 33.1888 40.6359 33.1848C33.2807 33.1808 27.9215 28.4386 27.9255 21.7949ZM45.3808 21.8042C45.3808 18.4823 43.3488 16.6182 40.6493 16.6169C37.9843 16.6169 35.9097 18.4823 35.907 21.7989C35.907 25.162 37.9843 27.0661 40.6439 27.0675C43.3355 27.0701 45.3755 25.1674 45.3768 21.8055L45.3808 21.8042Z" fill="#8B32FE"/>
    <path d="M0.317872 4.20361C0.317872 1.89444 2.05008 0.112926 4.66971 0.114259C7.28933 0.115591 9.01754 1.77851 9.01621 4.08369C9.01621 6.51412 7.284 8.29563 4.66571 8.2943C2.04741 8.29296 0.316539 6.51278 0.317872 4.20361Z" fill="#8B32FE"/>
    <path d="M125.069 22.4171V10.9302H132.408V12.5017H126.737V15.7244H131.451V17.2959H126.737V20.8456H132.408V22.4171H125.069Z" fill="white"/>
    <path d="M136.653 22.4171L133.526 13.8019H135.209L137.499 20.3271L139.788 13.8019H141.471L138.344 22.4171H136.653Z" fill="white"/>
    <path d="M146.418 22.6564C145.562 22.6564 144.809 22.4703 144.16 22.098C143.517 21.7204 143.014 21.1966 142.653 20.5265C142.296 19.8512 142.118 19.0694 142.118 18.1813C142.118 17.24 142.294 16.4237 142.645 15.7324C143.001 15.041 143.496 14.5066 144.128 14.129C144.761 13.7514 145.498 13.5626 146.338 13.5626C147.215 13.5626 147.963 13.7674 148.58 14.1769C149.196 14.581 149.656 15.158 149.96 15.9079C150.268 16.6577 150.39 17.5485 150.326 18.5802H148.659V17.9739C148.649 16.9741 148.457 16.2349 148.085 15.7563C147.718 15.2777 147.157 15.0384 146.402 15.0384C145.567 15.0384 144.939 15.3016 144.519 15.8281C144.099 16.3546 143.889 17.115 143.889 18.1095C143.889 19.0561 144.099 19.79 144.519 20.3112C144.939 20.827 145.546 21.0849 146.338 21.0849C146.859 21.0849 147.309 20.9679 147.686 20.7339C148.069 20.4946 148.367 20.1543 148.58 19.7129L150.215 20.2314C149.88 21.0025 149.372 21.6008 148.691 22.0262C148.011 22.4463 147.253 22.6564 146.418 22.6564ZM143.347 18.5802V17.2799H149.497V18.5802H143.347Z" fill="white"/>
    <path d="M157.929 22.4171V18.1813C157.929 17.8463 157.9 17.5033 157.841 17.1523C157.788 16.796 157.682 16.4663 157.522 16.1631C157.368 15.86 157.147 15.6154 156.86 15.4292C156.578 15.2431 156.209 15.1501 155.751 15.1501C155.454 15.1501 155.172 15.2006 154.906 15.3016C154.64 15.3973 154.406 15.5542 154.204 15.7723C154.007 15.9903 153.85 16.2775 153.733 16.6338C153.621 16.9901 153.566 17.4235 153.566 17.934L152.529 17.5431C152.529 16.7614 152.675 16.0727 152.967 15.4771C153.26 14.8762 153.68 14.4082 154.228 14.0732C154.775 13.7381 155.438 13.5706 156.214 13.5706C156.81 13.5706 157.309 13.6663 157.714 13.8578C158.118 14.0492 158.445 14.3018 158.695 14.6156C158.95 14.924 159.144 15.2617 159.277 15.6287C159.41 15.9956 159.5 16.3546 159.548 16.7056C159.596 17.0566 159.62 17.365 159.62 17.6309V22.4171H157.929ZM151.875 22.4171V13.8019H153.366V16.2908H153.566V22.4171H151.875Z" fill="white"/>
    <path d="M166.628 22.4171C166.085 22.5234 165.553 22.5686 165.032 22.5527C164.511 22.5367 164.046 22.4357 163.636 22.2496C163.227 22.0634 162.918 21.7709 162.711 21.3721C162.525 21.0158 162.424 20.6542 162.408 20.2872C162.397 19.915 162.392 19.4948 162.392 19.0269V11.4088H164.067V18.9471C164.067 19.2928 164.07 19.5932 164.075 19.8485C164.086 20.1038 164.142 20.3191 164.243 20.4946C164.434 20.8243 164.737 21.0131 165.152 21.061C165.572 21.1035 166.064 21.0849 166.628 21.0052V22.4171ZM160.741 15.1421V13.8019H166.628V15.1421H160.741Z" fill="white"/>
    <path d="M170.84 22.4171L174.573 10.9302H176.975L180.708 22.4171H178.977L175.539 11.9353H175.969L172.571 22.4171H170.84ZM172.779 19.8246V18.2611H178.777V19.8246H172.779Z" fill="white"/>
    <path d="M186.757 22.4171C186.215 22.5234 185.683 22.5686 185.162 22.5527C184.64 22.5367 184.175 22.4357 183.766 22.2496C183.356 22.0634 183.048 21.7709 182.84 21.3721C182.654 21.0158 182.553 20.6542 182.537 20.2872C182.527 19.915 182.521 19.4948 182.521 19.0269V11.4088H184.196V18.9471C184.196 19.2928 184.199 19.5932 184.204 19.8485C184.215 20.1038 184.271 20.3191 184.372 20.4946C184.563 20.8243 184.866 21.0131 185.281 21.061C185.701 21.1035 186.193 21.0849 186.757 21.0052V22.4171ZM180.87 15.1421V13.8019H186.757V15.1421H180.87Z" fill="white"/>
    <path d="M192.005 22.6564C191.149 22.6564 190.396 22.4703 189.747 22.098C189.104 21.7204 188.601 21.1966 188.24 20.5265C187.883 19.8512 187.705 19.0694 187.705 18.1813C187.705 17.24 187.881 16.4237 188.232 15.7324C188.588 15.041 189.083 14.5066 189.715 14.129C190.348 13.7514 191.085 13.5626 191.925 13.5626C192.803 13.5626 193.55 13.7674 194.167 14.1769C194.783 14.581 195.243 15.158 195.547 15.9079C195.855 16.6577 195.977 17.5485 195.914 18.5802H194.246V17.9739C194.236 16.9741 194.044 16.2349 193.672 15.7563C193.305 15.2777 192.744 15.0384 191.989 15.0384C191.154 15.0384 190.526 15.3016 190.106 15.8281C189.686 16.3546 189.476 17.115 189.476 18.1095C189.476 19.0561 189.686 19.79 190.106 20.3112C190.526 20.827 191.133 21.0849 191.925 21.0849C192.446 21.0849 192.896 20.9679 193.273 20.7339C193.656 20.4946 193.954 20.1543 194.167 19.7129L195.802 20.2314C195.467 21.0025 194.959 21.6008 194.278 22.0262C193.598 22.4463 192.84 22.6564 192.005 22.6564ZM188.934 18.5802V17.2799H195.084V18.5802H188.934Z" fill="white"/>
    <path d="M197.863 22.4171V10.6909H199.53V22.4171H197.863Z" fill="white"/>
    <path d="M202.085 12.39V10.7707H203.752V12.39H202.085ZM202.085 22.4171V13.8019H203.752V22.4171H202.085Z" fill="white"/>
    <path d="M209.969 22.6564C209.112 22.6564 208.36 22.4703 207.711 22.098C207.068 21.7204 206.565 21.1966 206.203 20.5265C205.847 19.8512 205.669 19.0694 205.669 18.1813C205.669 17.24 205.844 16.4237 206.195 15.7324C206.552 15.041 207.046 14.5066 207.679 14.129C208.312 13.7514 209.049 13.5626 209.889 13.5626C210.766 13.5626 211.513 13.7674 212.13 14.1769C212.747 14.581 213.207 15.158 213.51 15.9079C213.819 16.6577 213.941 17.5485 213.877 18.5802H212.21V17.9739C212.199 16.9741 212.008 16.2349 211.636 15.7563C211.269 15.2777 210.708 15.0384 209.953 15.0384C209.118 15.0384 208.49 15.3016 208.07 15.8281C207.65 16.3546 207.44 17.115 207.44 18.1095C207.44 19.0561 207.65 19.79 208.07 20.3112C208.49 20.827 209.096 21.0849 209.889 21.0849C210.41 21.0849 210.859 20.9679 211.237 20.7339C211.62 20.4946 211.918 20.1543 212.13 19.7129L213.766 20.2314C213.431 21.0025 212.923 21.6008 212.242 22.0262C211.561 22.4463 210.803 22.6564 209.969 22.6564ZM206.897 18.5802V17.2799H213.048V18.5802H206.897Z" fill="white"/>
    <path d="M215.667 22.4171V13.8019H217.151V15.8919L216.943 15.6207C217.05 15.3442 217.188 15.0916 217.358 14.8629C217.528 14.6289 217.725 14.4374 217.948 14.2885C218.166 14.129 218.408 14.0067 218.674 13.9216C218.946 13.8312 219.222 13.778 219.504 13.7621C219.786 13.7408 220.057 13.7541 220.318 13.8019V15.3654C220.036 15.291 219.722 15.2697 219.376 15.3016C219.036 15.3335 218.722 15.4425 218.435 15.6287C218.164 15.8042 217.948 16.0169 217.789 16.2668C217.635 16.5168 217.523 16.796 217.454 17.1044C217.385 17.4075 217.35 17.7293 217.35 18.0696V22.4171H215.667Z" fill="white"/>
</svg>
