<svg width="16" height="16" viewBox="0 0 16 16" fill="none"
    xmlns="http://www.w3.org/2000/svg">
    <path d="M12.1958 7.39964C12.2205 6.61332 11.8 5.72017 11.071 5.01037C10.3419 4.30275 9.42492 3.89364 8.61422 3.91751M15.2459 7.38857C15.3166 6.09575 14.4694 4.39285 13.0876 3.0504C11.6837 1.68621 9.97208 0.881457 8.6251 0.952122M3.05779 1.90003C2.92725 1.90003 2.80522 1.94871 2.7143 2.03711L1.20808 3.50151C0.933142 3.76882 0.716781 4.35496 0.754225 4.73122C0.757621 4.76242 1.13588 8.02183 4.62674 11.4167C7.97686 14.6734 11.3258 15.0381 11.3588 15.0413C11.7453 15.0774 12.1967 15.0453 12.6226 14.6001L14.1286 13.1357C14.318 12.9516 14.318 12.6516 14.1286 12.4673L11.6894 10.0872C11.5075 9.91056 11.1843 9.91056 11.0018 10.0872L10.5042 10.5711C10.028 11.0341 9.11494 11.3337 8.44043 11.236C8.31521 11.2182 7.5313 11.3751 6.02798 9.91358C4.52488 8.45321 4.78646 7.80635 4.76798 7.68481C4.66758 7.01741 4.96173 6.15476 5.45234 5.67828L5.94989 5.1947C6.04103 5.1063 6.09095 4.98765 6.09116 4.86074C6.09116 4.73382 6.04103 4.61493 5.94989 4.52655L3.40153 2.03758C3.31062 1.94871 3.18858 1.90003 3.05779 1.90003Z" stroke="#1B1B1B" stroke-width="1.5" stroke-miterlimit="10" stroke-linecap="round" stroke-linejoin="round"/>
</svg>
