<svg width="122" height="121" viewBox="0 0 122 121" fill="none" xmlns="http://www.w3.org/2000/svg">
<path d="M18.7808 57.536V26.9771H91.7626" stroke="#8B32FE" stroke-width="1.5" stroke-miterlimit="10" stroke-linecap="round" stroke-linejoin="round"/>
<path d="M99.8518 26.9771H103.267V78.5677H18.7808V65.4453" stroke="#8B32FE" stroke-width="1.5" stroke-miterlimit="10" stroke-linecap="round" stroke-linejoin="round"/>
<path d="M35.8612 89.5328C47.5455 89.5328 97.698 89.5328 120.527 89.5328C119.808 96.3636 114.056 101.936 106.866 101.936H15.189C7.99864 101.936 2.24638 96.5434 1.52734 89.5328C1.88686 89.5328 17.8854 89.5328 17.5258 89.5328M10.5153 89.5328V22.8424C10.5153 20.5056 12.4926 18.708 14.6497 18.708H107.225C109.562 18.708 111.36 20.6853 111.36 22.8424V89.5328" stroke="#8B32FE" stroke-width="1.5" stroke-miterlimit="10" stroke-linecap="round" stroke-linejoin="round"/>
<path d="M95.0079 44.7729H61.2134V53.0418H95.0079V44.7729Z" stroke="#8B32FE" stroke-width="1.5" stroke-miterlimit="10" stroke-linecap="round" stroke-linejoin="round"/>
<path d="M61.2134 37.4028H82.9641" stroke="#8B32FE" stroke-width="1.5" stroke-miterlimit="10" stroke-linecap="round" stroke-linejoin="round"/>
<path d="M95.0079 59.873H61.2134V68.1419H95.0079V59.873Z" stroke="#8B32FE" stroke-width="1.5" stroke-miterlimit="10" stroke-linecap="round" stroke-linejoin="round"/>
<path d="M36.7615 42.6841L47.0077 55.447L42.6935 55.2672C42.334 55.2672 41.9745 55.6267 41.9745 55.9862V56.166L43.7721 62.817L40.7162 63.7158L38.9186 57.0647C38.9186 56.7052 38.5591 56.5255 38.1996 56.5255H38.0198L34.2449 58.8623L36.7615 42.6841Z" stroke="#8B32FE" stroke-width="1.5" stroke-miterlimit="10" stroke-linecap="round" stroke-linejoin="round"/>
</svg>
