<svg width="30" height="36" viewBox="0 0 30 36" fill="none" xmlns="http://www.w3.org/2000/svg">
<path fill-rule="evenodd" clip-rule="evenodd" d="M18.2741 30.2783C24.9838 28.7845 30 22.7964 30 15.6367C30 7.35245 23.2843 0.636719 15 0.636719C6.71573 0.636719 0 7.35245 0 15.6367C0 22.7964 5.01621 28.7845 11.7259 30.2783L15 35.9492L18.2741 30.2783Z" fill="#8B32FE"/>
<path d="M16.7496 11.3521H13.25V24.4396H16.7496V11.3521Z" fill="black"/>
<path d="M14.9982 10.4006C14.934 10.4006 14.8698 10.3966 14.8056 10.3926C14.7414 10.3846 14.6771 10.3765 14.6129 10.3645C14.5487 10.3524 14.4845 10.3364 14.4243 10.3163C14.3641 10.2963 14.2999 10.2762 14.2397 10.2521C14.1795 10.228 14.1193 10.1999 14.0631 10.1678C14.0069 10.1357 13.9507 10.1036 13.8945 10.0675C13.8424 10.0314 13.7902 9.99125 13.738 9.95112C13.6899 9.91098 13.6417 9.86684 13.5935 9.81868C13.5494 9.77453 13.5053 9.72637 13.4611 9.6742C13.421 9.62202 13.3808 9.57386 13.3447 9.51768C13.3086 9.4655 13.2765 9.40932 13.2444 9.34912C13.2123 9.29293 13.1842 9.23273 13.1601 9.17253C13.136 9.11233 13.1119 9.05213 13.0959 8.98792C13.0758 8.92772 13.0598 8.8635 13.0477 8.79929C13.0357 8.73508 13.0237 8.67086 13.0196 8.60665C13.0196 8.55046 13.0156 8.48625 13.0156 8.42204C13.0156 8.35782 13.0196 8.29361 13.0237 8.2294C13.0317 8.16518 13.0397 8.10097 13.0517 8.03676C13.0638 7.97254 13.0798 7.90833 13.0999 7.84813C13.12 7.78793 13.14 7.72372 13.1641 7.66352C13.1882 7.60332 13.2163 7.54312 13.2484 7.48693C13.2805 7.43075 13.3126 7.37456 13.3487 7.31837C13.3849 7.2662 13.425 7.21403 13.4651 7.16185C13.5053 7.10968 13.5494 7.06553 13.5976 7.01737C13.6417 6.97323 13.6899 6.92908 13.742 6.88493C13.7942 6.8448 13.8424 6.80467 13.8986 6.76855C13.9507 6.73243 14.0069 6.70032 14.0671 6.66821C14.1273 6.63611 14.1835 6.60801 14.2437 6.58393C14.3039 6.55985 14.3641 6.53577 14.4283 6.51972C14.4885 6.49965 14.5527 6.4836 14.6169 6.47156C14.6812 6.45952 14.7454 6.44748 14.8096 6.44347C14.8658 6.44347 14.934 6.43945 14.9982 6.43945C15.0624 6.43945 15.1266 6.44347 15.1908 6.44748C15.2551 6.45551 15.3193 6.46353 15.3835 6.47557C15.4477 6.48761 15.5119 6.50367 15.5721 6.52373C15.6323 6.5438 15.6965 6.56387 15.7567 6.58795C15.8169 6.61203 15.8771 6.64012 15.9333 6.67223C15.9895 6.70433 16.0457 6.73644 16.1019 6.77256C16.1581 6.80868 16.2062 6.84881 16.2584 6.88895C16.3066 6.92908 16.3547 6.97323 16.4029 7.02139C16.447 7.06553 16.4912 7.11369 16.5353 7.16587C16.5754 7.21804 16.6156 7.2662 16.6517 7.32239C16.6878 7.37456 16.7199 7.43075 16.752 7.49095C16.7841 7.54713 16.8122 7.60733 16.8363 7.66753C16.8604 7.72773 16.8845 7.78793 16.9005 7.85214C16.9206 7.91234 16.9366 7.97656 16.9487 8.04077C16.9607 8.10498 16.9728 8.1692 16.9768 8.23341C16.9848 8.29762 16.9848 8.36184 16.9848 8.42605C16.9848 8.49026 16.9808 8.55448 16.9768 8.61869C16.9728 8.6829 16.9607 8.74712 16.9487 8.81133C16.9366 8.87554 16.9206 8.93976 16.9005 8.99996C16.8805 9.06016 16.8604 9.12437 16.8363 9.18457C16.8122 9.24477 16.7841 9.30497 16.752 9.36116C16.7199 9.41734 16.6878 9.47353 16.6517 9.52972C16.6156 9.58189 16.5754 9.63406 16.5353 9.68624C16.4952 9.73841 16.451 9.78256 16.4029 9.83072C16.3587 9.87486 16.3106 9.91901 16.2584 9.96316C16.2062 10.0033 16.1581 10.0434 16.1019 10.0795C16.0497 10.1157 15.9935 10.1478 15.9333 10.1799C15.8771 10.212 15.8169 10.2401 15.7567 10.2642C15.6965 10.2882 15.6363 10.3123 15.5721 10.3284C15.5119 10.3484 15.4477 10.3645 15.3835 10.3765C15.3193 10.3886 15.2551 10.4006 15.1908 10.4046C15.1266 10.4006 15.0624 10.4006 14.9982 10.4006Z" fill="black"/>
</svg>
